<svg height="158" viewBox="0 0 282.009 158" width="282.009" xmlns="http://www.w3.org/2000/svg"><g stroke-width="3"><path d="m122 74.5c-19.054 0-34.5-15.446-34.5-34.5s15.446-34.5 34.5-34.5 34.5 15.446 34.5 34.5-15.446 34.5-34.5 34.5z" fill="none" stroke="#000"/><path d="m73.9 40h-61.4" fill="none" stroke="#000"/><path d="m73.9 44.2 11.2-4.2-11.2-4.2z" stroke="#000"/><path d="m122 88.1v58.4" fill="none" stroke="#000"/><path d="m126.2 88.1-4.2-11.2-4.2 11.2z" stroke="#000"/><path d="m217.9 40h-61.4" fill="none" stroke="#000"/><path d="m217.9 44.2 11.2-4.2-11.2-4.2z" stroke="#000"/><path d="m98.697 15.529 48.5 48.5" fill="none" stroke="#000"/><path d="m147.197 15.529-48.5 48.5" fill="none" stroke="#030303"/></g><text transform="translate(9.952 26.029)"><tspan fill="#2715fd" font-family="ArialMT" font-size="19" x="-6.254" y="6">f</tspan> <tspan fill="#2715fd" font-family="ArialMT" font-size="13" x="-.976" y="6">1</tspan></text><text transform="translate(104.746 143)"><tspan fill="#2715fd" font-family="ArialMT" font-size="19" x="-6.254" y="6">f</tspan> <tspan fill="#2715fd" font-family="ArialMT" font-size="13" x="-.976" y="6">2</tspan></text><text transform="translate(253.254 42)"><tspan fill="#2715fd" font-family="ArialMT" font-size="19" x="-23.335" y="-12.5">f</tspan> <tspan fill="#2715fd" font-family="ArialMT" font-size="13" x="-18.057" y="-12.5">1</tspan> <tspan fill="#2715fd" font-family="ArialMT" font-size="19" x="-10.827" y="-12.5">+ f</tspan> <tspan fill="#2715fd" font-family="ArialMT" font-size="13" x="16.105" y="-12.5">2</tspan> <tspan fill="#2715fd" font-family="ArialMT" font-size="19" x="-20.951" y="24.5">f</tspan> <tspan fill="#2715fd" font-family="ArialMT" font-size="13" x="-15.672" y="24.5">1</tspan> <tspan fill="#2715fd" font-family="ArialMT" font-size="19" x="-8.442" y="24.5">- f</tspan> <tspan fill="#2715fd" font-family="ArialMT" font-size="13" x="13.721" y="24.5">2</tspan></text></svg>